# xmcd
#
# Track frame offsets:
#	150
#	10542
#	22372
#	34480
#	45999
#	56950
#	70341
#	80422
#	91084
#	101104
#	114482
#
# Disc length: 1731 seconds
#
# Revision: 0
# Processed by: cddbd v1.5.2PL0 Copyright (c) Steve Scherf et al.
# Submitted via: EZCDAudioConverter 3.1.0.1
#
DISCID=8e06c10b
DTITLE=Terry Jacks - Seasons in the sun
DYEAR=1974
DGENRE=Country
TTITLE0=Concrete sea
TTITLE1=I'm gonna love you too
TTITLE2=Pumpkin eater
TTITLE3=Again and again
TTITLE4=Since you broke my heart
TTITLE5=Fire on the skyline
TTITLE6=The love game
TTITLE7=I'm so lonely here today
TTITLE8=It's been there from start
TTITLE9=Sail away
TTITLE10=Seasons in the sun
EXTD=
EXTT0=
EXTT1=
EXTT2=
EXTT3=
EXTT4=
EXTT5=
EXTT6=
EXTT7=
EXTT8=
EXTT9=
EXTT10=
PLAYORDER=
